<svg viewBox="0 0 512 512" xmlns="http://www.w3.org/2000/svg" fill-rule="evenodd" clip-rule="evenodd" stroke-linejoin="round" stroke-miterlimit="2"><g transform="translate(6 108.162) scale(.08142)"><clipPath id="prefix__a"><path d="M0 0h6140.93v3631.47H0z"/></clipPath><g clip-path="url(#prefix__a)"><path d="M2994.66 3630.79a3455.047 3455.047 0 01-788.532-111.332 2879.622 2879.622 0 01-689.065-277.733 2304.891 2304.891 0 01-611.599-495.065c-74.133-84.8-114.666-141.733-134.666-188.533a124.018 124.018 0 01-12-47.333c-1.6-30.267 8-48.8 31.467-60.267 8.4-4.266 9.333-4.4 24.8-4.4a67.943 67.943 0 0125.333 3.067c27.066 8.8 61.466 30.266 106 65.866a2758.855 2758.855 0 00496.665 320.4c196.933 99.333 389.732 170.932 631.598 234.666a4209.306 4209.306 0 00837.065 131.2c97.066 5.466 125.066 6.133 252.666 6.133 141.2 0 205.6-2 322.666-10 481.999-33.067 958.264-145.2 1313.063-309.066a2882.284 2882.284 0 0084-41.333c60.133-30.267 76-37.6 100.933-46.667 35.067-12.533 59.2-8.4 79.6 13.6a67.27 67.27 0 0119.733 51.333c-6.8 55.333-78.666 133.867-218.266 239.066-332.799 250.666-792.531 425.733-1299.73 494.932a3624.36 3624.36 0 01-351.332 30.134 5066.878 5066.878 0 01-220.533 1.333h.133zm2153.327-319.198a68.213 68.213 0 01-35.733-32c-10.267-22.4-7.067-42 13.867-85.467a765.937 765.937 0 0142.533-75.333c54.933-91.066 110.133-212.533 136.133-299.466 26.133-87.2 29.333-136.8 10.666-165.066-16-24.267-67.333-39.467-150.933-44.933-32.666-2.134-137.6-.8-168.932 2-70 6.533-118.667 13.6-184 26.8-46.667 9.466-55.733 10.666-88.666 10.666-31.867 0-38.4-.933-51.334-7.333-19.906-10.853-31.093-33-28-55.466 3.334-18.267 15.2-35.467 37.067-53.734 55.866-46.666 143.2-92 238.266-123.466a873.261 873.261 0 01310-44.4 794.687 794.687 0 01177.332 25.867c94.933 24.533 152.4 56 172.4 94.666 15.333 29.733 21.066 59.867 20.933 111.467a822.438 822.438 0 01-44.8 260.266 810.744 810.744 0 01-208.666 332.265c-70.667 69.734-119.6 106.667-159.333 120a76.328 76.328 0 01-38.667 2.667h-.133zM29.867 2339.594a52.329 52.329 0 01-26.534-23.866l-3.066-5.6L0 1434.796C-.267 641.732-.133 558.8 1.733 552.266c2.667-9.2 13.734-21.334 24.4-26.4l7.467-3.734h241.333l6.266 2.933a45.877 45.877 0 0122.267 22.8c4.8 10.267 6.267 17.2 25.733 112.667l13.733 67.6h13.334l6-12.934a424.632 424.632 0 0151.6-84.4 429.485 429.485 0 0187.466-79.066c85.261-57.52 190.689-77.136 290.933-54.133 101.6 22.266 193.333 89.866 259.999 191.6 64.4 98.399 109.6 239.465 124 387.598 4.266 44 4.933 56.267 5.6 119.6a1206.55 1206.55 0 01-8.934 187.066c-21.333 170.266-79.066 317.6-162.666 414.666a627.55 627.55 0 01-61.333 59.6 380.792 380.792 0 01-182.666 80c-26.134 4-89.067 4.4-114 .666-96.933-14.533-170-59.6-234.4-144.666a654.867 654.867 0 01-48-75.2c-3.6-6.267-3.733-6.4-10.266-6.4h-6.667l-.266 299.066-.4 298.933-4 7.066a54.115 54.115 0 01-24.133 22.133c-5.6 1.867-21.334 2.134-147.733 2.134-115.467 0-142.4-.4-146.533-1.867zm591.465-698.265c50.666-9.733 90.933-38.4 122.666-87.333 40-61.333 63.467-150.666 70.533-269.066 2.134-35.333.934-140.133-2-170.266-6.133-64-16.133-116-30.666-158.266-33.6-98-86-152.933-160.533-168-25.36-3.3-51.04-3.3-76.4 0-61.067 12.267-107.466 51.067-141.733 118.266a461.328 461.328 0 00-41.333 125.333c-17.2 86.934-20.267 218.4-7.334 319.2 10.934 85.466 33.867 154.8 67.6 204.8 36 52.932 80.667 81.199 139.6 87.999 14.4 1.733 43.866.4 59.6-2.667zm4903.054 299.2l-20.666-2a544.048 544.048 0 01-276.4-104.934 636.309 636.309 0 01-104.8-101.2c-85.333-107.732-138.266-244.799-154-399.732-4.132-41.2-5.066-66.666-4.4-123.6a881.47 881.47 0 0113.734-161.066c49.733-283.599 229.6-495.465 464-546.398 42.932-9.334 76.932-12.8 125.865-12.8a509.389 509.389 0 01192.667 34.8 673.46 673.46 0 0168.4 33.2 568.75 568.75 0 01179.999 170.133 784.185 784.185 0 01114.133 281.065c13.733 68.534 18.667 129.067 18 222.667-.4 56.8-.533 58.133-3.467 63.466a42.149 42.149 0 01-29.466 22.667c-6.134 1.466-76.8 1.866-391.333 1.866H5332.92l.8 9.067c10.667 114.933 31.733 189.866 68.933 245.466 31.067 46.667 69.2 73.333 120 84.267 16.266 3.466 54.933 4.8 74.4 2.666 52.8-6.133 91.333-24 123.466-57.733 25.867-27.067 43.6-60.933 56.4-107.733 6.533-24 8-27.6 14.4-34.667 6.933-7.733 14.666-11.066 25.733-11.066 12 0 263.733 56.266 274.133 61.2 13.013 5.8 20.666 19.626 18.666 33.733-2.666 20.8-33.066 91.6-56.8 132.933a516.055 516.055 0 01-215.332 205.6 583.422 583.422 0 01-198 55.732c-18.133 2-101.333 3.734-115.333 2.4zm256.133-864.798c-1.733-18.667-7.6-56.667-12.133-79.6-21.467-105.733-64.534-178.8-123.2-209.333-49.333-24.43-107.333-24.579-156.8-.4a177.368 177.368 0 00-50 37.6 231.107 231.107 0 00-43.6 57.6c-25.333 45.733-44.4 107.333-54.933 178.4-1.466 9.866-2.666 19.6-2.666 21.733v3.6h444.132l-.933-9.6h.133zm-4377.323 828.53a52.047 52.047 0 01-24-25.066c-1.866-5.733-2.133-63.733-2.133-665.865 0-596.665.267-659.998 2.134-665.731a39.186 39.186 0 0120.8-21.734l8.4-3.866 116.666-.4c121.333-.4 127.066-.267 137.466 5.066 7.333 3.734 16.533 14.667 19.733 23.6 1.6 4.267 10.4 44.667 19.467 89.733l17.333 85.067c.8 2.667 1.334 3.067 7.467 2.667l6.667-.4 7.066-16a440.138 440.138 0 0156.267-95.334c12.666-15.866 40-42.666 56-54.8 62.266-47.466 128.533-69.333 211.066-69.2 56 0 105.333 9.6 150.666 29.067 14.933 6.4 23.067 12.934 28 22 3.2 6.4 3.467 8.134 3.467 21.6 0 14.667-.134 15.067-33.067 148-18.133 73.333-34 136-35.066 138.933-2.667 6.933-9.6 14.4-16.267 17.333a41.32 41.32 0 01-14.933 2.133c-11.334 0-12.267-.266-58.267-18.933-48.133-19.6-84.4-30.933-112.4-34.933a356.25 356.25 0 00-73.333.533 189.28 189.28 0 00-68.933 25.2c-16 9.867-40.933 34.667-52.666 52.4-32.4 49.2-47.067 106-50.4 194-.667 18-1.2 202.266-1.334 409.332 0 416.932.8 381.999-8.533 394.799a31.631 31.631 0 01-12.267 10l-7.866 3.867-144.667.4-144.666.266-7.867-3.733zm993.331 1.868c-13.066-4-21.466-12-25.733-24-2.267-6.534-2.4-36.934-2.4-668.132V552.665l3.467-7.333c4.4-9.333 10.666-15.333 20-19.867l7.2-3.466 140.666-.4c145.733-.4 152.4-.134 162.666 5.066a40.001 40.001 0 0115.734 17.067c2.266 4.667 2.4 40 2.666 667.598.267 604.399.134 663.199-1.733 669.999a30.678 30.678 0 01-9.733 14.8c-12.667 12.666-.8 12-164.8 11.733-111.2 0-144-.4-148-1.733zm599.066 0c-11.067-4-20.8-12.667-26.667-23.734l-3.2-5.733V551.332l3.2-7.067a37.64 37.64 0 0120.133-18.8l7.334-3.466h121.333c112.933 0 121.866.133 127.466 2.4a42.664 42.664 0 0125.333 26c2.267 6.133 14 61.6 36 170.666l1.333 6.933h14l4.667-11.733a551.96 551.96 0 0133.467-66.267c53.866-86.133 131.733-139.866 226.399-156 62.933-10.8 132.933-5.6 190.4 14.134 75.333 25.867 138.266 77.333 184.666 151.2a575.568 575.568 0 0131.2 59.733l3.866 8.933h13.334l10.666-16.266c47.867-73.334 107.2-134 166-169.6a393.406 393.406 0 01259.2-49.333c91.372 13.372 173.652 62.876 228.265 137.333 16 21.333 28.4 41.733 41.867 69.2 34.533 70.133 56 150.4 64.666 242.266 4.534 47.6 4.934 84.8 4.4 512.398l-.4 422.666-3.466 7.333a36.983 36.983 0 01-18.8 20.134l-7.067 3.2h-292l-5.732-3.067a54.988 54.988 0 01-20.934-20.533l-4-7.067-.666-426.666c-.8-453.598-.534-432.132-6.667-467.998-12.933-76.4-46.8-129.6-98-154.133-25.333-12.134-50.133-16.667-85.066-15.467-49.333 1.733-86.133 16.933-117.467 48.267-37.6 37.466-59.333 92.666-69.733 176.666-2 16.4-2.266 56-2.933 428.665l-.8 410.666-3.467 7.333a36.983 36.983 0 01-18.8 20.134l-7.066 3.2h-292l-6.933-4a53.903 53.903 0 01-20.533-20.8l-3.2-5.867-.667-426.666c-.8-453.598-.533-432.132-6.667-467.998-12.933-76.4-46.8-129.6-98-154.133-25.333-12.134-50.133-16.667-85.066-15.467-49.333 1.733-86.133 16.933-117.466 48.267-37.6 37.466-59.333 92.666-69.733 176.666-2 16.4-2.267 56-2.934 428.665l-.8 410.666-3.466 7.333a36.983 36.983 0 01-18.8 20.134l-7.067 3.2-144 .266c-115.466.267-144.932 0-148.8-1.333l-.132-.133zM2517.06 411.999a205.355 205.355 0 01-125.333-62.267 186.291 186.291 0 01-49.333-96c-4-20-5.067-58.666-2.133-81.066 8-60 35.333-105.333 83.066-137.333 68.667-46 169.333-47.333 237.2-3.066a205.412 205.412 0 0164.4 66c28.666 48.533 34.666 124 14.8 183.332-19.174 53.808-60.88 96.676-114.134 117.333-31.733 12.267-72 17.2-108.533 13.067z" fill="#0779ff" fill-rule="nonzero"/></g></g></svg>